<svg xmlns="http://www.w3.org/2000/svg" xmlns:xlink="http://www.w3.org/1999/xlink" id="Layer_1" x="0px" y="0px" viewBox="0 0 984.8 292.2" style="enable-background:new 0 0 984.8 292.2;" xml:space="preserve"><style type="text/css">	.st0{fill:none;}	.st1{fill:#FFFFFF;}</style><g>	<g>		<path class="st0" d="M948.9,292.2H36c-19.8,0-36-16.2-36-36V36C0,16.2,16.2,0,36,0h912.9c19.8,0,36,16.2,36,36v220.3   C984.8,276.1,968.7,292.2,948.9,292.2z"></path>		<g>			<path class="st1" d="M947.2,285.6H37.6c-16.8,0-30.5-13.7-30.5-30.5v-218c0-16.8,13.7-30.5,30.5-30.5h909.6    c16.8,0,30.5,13.7,30.5,30.5v218C977.7,271.9,964,285.6,947.2,285.6z"></path>		</g>	</g>	<g id="App_Store_2_">		<g>			<path d="M205.6,176.5c-2.5,5.6-5.4,10.8-8.8,15.5c-4.7,6.5-8.5,11-11.4,13.5c-4.5,4.1-9.4,6.2-14.6,6.3c-3.7,0-8.3-1-13.5-3.2    c-5.3-2.1-10.1-3.1-14.6-3.1c-4.7,0-9.6,1-15,3.1c-5.3,2.1-9.6,3.2-12.9,3.3c-5,0.2-10-1.9-15-6.5c-3.2-2.7-7.2-7.4-11.9-13.9    c-5.1-7-9.3-15.2-12.6-24.5c-3.5-10-5.3-19.7-5.3-29.2c0-10.8,2.4-20.1,7.2-27.9c3.8-6.3,8.7-11.2,15-14.8    c6.2-3.6,13-5.5,20.3-5.6c4,0,9.2,1.2,15.7,3.6c6.5,2.4,10.6,3.6,12.4,3.6c1.4,0,6-1.4,13.8-4.2c7.4-2.6,13.6-3.7,18.7-3.3    c13.8,1.1,24.2,6.4,31.2,16c-12.4,7.3-18.5,17.6-18.4,30.8c0.1,10.3,3.9,18.8,11.4,25.6c3.4,3.1,7.2,5.6,11.4,7.3    C207.6,171.6,206.6,174.1,205.6,176.5L205.6,176.5z M173.8,54.4c0,8-3,15.5-9,22.5c-7.2,8.3-16,13-25.5,12.3c-0.1-1-0.2-2-0.2-3    c0-7.7,3.4-16,9.5-22.7c3-3.4,6.9-6.3,11.6-8.5c4.7-2.2,9.1-3.5,13.3-3.7C173.8,52.3,173.8,53.4,173.8,54.4L173.8,54.4z"></path>			<g>				<path d="M373.1,218.4h-16.2l-8.8-27.2h-30.8l-8.4,27.2h-15.7l30.5-92.5h18.8L373.1,218.4z M345.4,179.8l-8-24.2     c-0.8-2.5-2.4-8.3-4.8-17.4h-0.3c-0.9,3.9-2.4,9.7-4.5,17.4l-7.9,24.2H345.4z"></path>				<path d="M451.5,184.2c0,11.3-3.1,20.3-9.4,26.9c-5.6,5.9-12.6,8.8-20.9,8.8c-9,0-15.5-3.2-19.4-9.5h-0.3v35.1h-15.2v-71.9     c0-7.1-0.2-14.5-0.6-22h13.3l0.8,10.6h0.3c5.1-8,12.7-11.9,23-11.9c8.1,0,14.8,3.1,20.2,9.3C448.8,165.8,451.5,174,451.5,184.2z      M436,184.7c0-6.5-1.5-11.8-4.5-16.1c-3.3-4.4-7.7-6.6-13.2-6.6c-3.7,0-7.1,1.2-10.2,3.6c-3,2.4-5,5.6-6,9.5     c-0.5,1.8-0.7,3.3-0.7,4.5v11.1c0,4.9,1.5,8.9,4.6,12.3c3,3.3,7,5,11.9,5c5.7,0,10.2-2.2,13.3-6.5     C434.4,197.4,436,191.8,436,184.7z"></path>				<path d="M530,184.2c0,11.3-3.1,20.3-9.4,26.9c-5.6,5.9-12.6,8.8-20.9,8.8c-9,0-15.5-3.2-19.4-9.5H480v35.1h-15.2v-71.9     c0-7.1-0.2-14.5-0.6-22h13.3l0.8,10.6h0.3c5.1-8,12.7-11.9,23-11.9c8,0,14.8,3.1,20.2,9.3C527.3,165.8,530,174,530,184.2z      M514.5,184.7c0-6.5-1.5-11.8-4.5-16.1c-3.3-4.4-7.7-6.6-13.2-6.6c-3.7,0-7.1,1.2-10.2,3.6c-3,2.4-5,5.6-6,9.5     c-0.5,1.8-0.7,3.3-0.7,4.5v11.1c0,4.9,1.5,8.9,4.6,12.3c3,3.3,7,5,11.9,5c5.7,0,10.2-2.2,13.3-6.5     C512.9,197.4,514.5,191.8,514.5,184.7z"></path>				<path d="M617.7,192.4c0,7.9-2.8,14.3-8.4,19.2c-6.2,5.4-14.8,8.1-25.8,8.1c-10.2,0-18.4-1.9-24.5-5.8l3.5-12.4     c6.7,3.9,14,5.9,21.9,5.9c5.7,0,10.2-1.3,13.4-3.8c3.2-2.5,4.8-5.9,4.8-10.1c0-3.8-1.3-6.9-3.9-9.5c-2.6-2.6-7-4.9-13.1-7.2     c-16.6-6-24.9-14.9-24.9-26.5c0-7.6,2.9-13.8,8.7-18.7c5.8-4.9,13.5-7.3,23.2-7.3c8.6,0,15.8,1.5,21.5,4.4l-3.8,12.1     c-5.3-2.8-11.4-4.3-18.1-4.3c-5.3,0-9.5,1.3-12.5,3.8c-2.5,2.3-3.8,5.1-3.8,8.4c0,3.7,1.4,6.7,4.3,9.1c2.5,2.2,7.1,4.6,13.8,7.1     c8.1,3.2,14.1,7,18,11.2C615.8,180.7,617.7,186,617.7,192.4z"></path>				<path d="M667.9,162.8h-16.7v32.4c0,8.2,2.9,12.4,8.8,12.4c2.7,0,5-0.2,6.7-0.7l0.4,11.3c-3,1.1-6.9,1.6-11.8,1.6     c-6,0-10.7-1.8-14-5.4c-3.4-3.6-5.1-9.6-5.1-18v-33.6h-10v-11.1h10v-12.2l14.9-4.4v16.6h16.7V162.8z"></path>				<path d="M743.3,184.4c0,10.3-3,18.7-9,25.3c-6.3,6.8-14.6,10.2-25,10.2c-10,0-18-3.2-23.9-9.7c-5.9-6.5-8.9-14.7-8.9-24.6     c0-10.3,3.1-18.8,9.2-25.4c6.1-6.6,14.4-9.9,24.8-9.9c10,0,18.1,3.2,24.2,9.7C740.4,166.3,743.3,174.5,743.3,184.4z      M727.6,184.9c0-6.2-1.3-11.4-4.1-15.8c-3.2-5.3-7.7-8-13.6-8c-6.1,0-10.7,2.7-13.9,8c-2.7,4.4-4.1,9.8-4.1,16.1     c0,6.2,1.3,11.4,4.1,15.8c3.3,5.3,7.9,8,13.8,8c5.8,0,10.3-2.7,13.6-8.1C726.2,196.4,727.6,191.1,727.6,184.9z"></path>				<path d="M792.6,164.7c-1.5-0.3-3.1-0.4-4.8-0.4c-5.3,0-9.5,2-12.4,5.9c-2.5,3.5-3.8,7.9-3.8,13.2v35h-15.2l0.1-45.7     c0-7.7-0.2-14.7-0.6-21h13.2l0.6,12.8h0.4c1.6-4.4,4.1-7.9,7.6-10.6c3.4-2.4,7-3.6,11-3.6c1.4,0,2.7,0.1,3.8,0.3V164.7z"></path>				<path d="M860.4,181.8c0,2.7-0.2,4.9-0.6,6.7h-45.5c0.2,6.6,2.4,11.6,6.6,15.1c3.8,3.1,8.8,4.7,14.9,4.7c6.7,0,12.9-1,18.4-3.2     l2.4,10.3c-6.5,2.8-14.1,4.1-22.9,4.1c-10.6,0-18.9-3-24.9-9.1c-6-6.1-9.1-14.3-9.1-24.5c0-10.1,2.8-18.4,8.4-25.1     c5.9-7.1,13.8-10.7,23.9-10.7c9.8,0,17.3,3.6,22.3,10.7C858.4,166.5,860.4,173.5,860.4,181.8z M846,178     c0.1-4.4-0.9-8.2-2.9-11.4c-2.6-4.1-6.7-6.2-12.1-6.2c-5,0-9,2-12.1,6c-2.5,3.2-4,7-4.5,11.5L846,178L846,178z"></path>			</g>			<g>				<g>					<path d="M341.2,72.9c0,7.9-2.4,13.9-7.3,17.9c-4.5,3.7-10.9,5.6-19.2,5.6c-4.1,0-7.6-0.2-10.6-0.5V52.5c3.8-0.6,8-0.9,12.5-0.9      c7.9,0,13.9,1.7,17.9,5C338.9,60.4,341.2,65.9,341.2,72.9z M333.6,73.1c0-5.1-1.4-9.1-4.2-11.8c-2.8-2.7-6.9-4.1-12.2-4.1      c-2.3,0-4.2,0.1-5.8,0.5v33c0.9,0.1,2.5,0.2,4.9,0.2c5.5,0,9.8-1.5,12.8-4.5C332,83.3,333.6,78.9,333.6,73.1z"></path>					<path d="M381.6,79.9c0,4.9-1.4,8.9-4.3,12c-3,3.2-7,4.8-11.9,4.8c-4.8,0-8.6-1.5-11.4-4.6c-2.8-3.1-4.2-7-4.2-11.7      c0-4.9,1.5-9,4.4-12.1c2.9-3.1,6.9-4.7,11.8-4.7c4.8,0,8.6,1.5,11.5,4.6C380.2,71.2,381.6,75.1,381.6,79.9z M374.1,80.1      c0-2.9-0.6-5.5-1.9-7.5c-1.5-2.5-3.7-3.8-6.5-3.8c-2.9,0-5.1,1.3-6.6,3.8c-1.3,2.1-1.9,4.7-1.9,7.7c0,2.9,0.6,5.4,1.9,7.5      c1.6,2.5,3.7,3.8,6.6,3.8c2.8,0,4.9-1.3,6.5-3.9C373.4,85.6,374.1,83,374.1,80.1z"></path>					<path d="M435.8,64.2L425.7,96H419l-4.2-13.8c-1.1-3.4-1.9-6.9-2.6-10.3h-0.1c-0.6,3.5-1.5,6.9-2.6,10.3L405,96h-6.7l-9.6-31.8      h7.4l3.7,15.1c0.9,3.6,1.6,7,2.2,10.2h0.1c0.5-2.7,1.4-6,2.7-10.1l4.6-15.2h5.9l4.4,14.9c1.1,3.6,1.9,7.1,2.6,10.5h0.2      c0.5-3.3,1.2-6.8,2.2-10.5l3.9-14.9L435.8,64.2L435.8,64.2z"></path>					<path d="M473.3,96h-7.2V77.8c0-5.6-2.2-8.4-6.6-8.4c-2.1,0-3.9,0.8-5.2,2.3c-1.3,1.5-2,3.4-2,5.4V96h-7.2V73.3      c0-2.8-0.1-5.8-0.3-9.1h6.4l0.3,5h0.2c0.8-1.5,2.1-2.8,3.7-3.8c2-1.2,4.2-1.8,6.6-1.8c3,0,5.6,1,7.6,2.9      c2.5,2.4,3.7,5.9,3.7,10.5V96z"></path>					<path d="M493.3,96h-7.2V49.6h7.2V96z"></path>					<path d="M535.9,79.9c0,4.9-1.4,8.9-4.3,12c-3,3.2-7,4.8-11.9,4.8c-4.8,0-8.6-1.5-11.4-4.6c-2.8-3.1-4.2-7-4.2-11.7      c0-4.9,1.5-9,4.4-12.1c2.9-3.1,6.9-4.7,11.8-4.7c4.8,0,8.6,1.5,11.5,4.6C534.5,71.2,535.9,75.1,535.9,79.9z M528.4,80.1      c0-2.9-0.6-5.5-1.9-7.5c-1.5-2.5-3.7-3.8-6.5-3.8c-2.9,0-5.1,1.3-6.6,3.8c-1.3,2.1-1.9,4.7-1.9,7.7c0,2.9,0.6,5.4,1.9,7.5      c1.6,2.5,3.7,3.8,6.6,3.8c2.8,0,4.9-1.3,6.5-3.9C527.7,85.6,528.4,83,528.4,80.1z"></path>					<path d="M570.9,96h-6.5l-0.5-3.7h-0.2c-2.2,2.9-5.4,4.4-9.5,4.4c-3.1,0-5.6-1-7.4-2.9c-1.7-1.7-2.5-3.9-2.5-6.5      c0-3.9,1.7-6.8,5-8.9c3.3-2.1,8-3.1,14-3v-0.6c0-4.2-2.3-6.3-6.8-6.3c-3.2,0-6,0.8-8.5,2.4l-1.5-4.6c3-1.8,6.8-2.7,11.2-2.7      c8.5,0,12.8,4.4,12.8,13.2v11.7C570.4,91.6,570.6,94.1,570.9,96z M563.4,85.1v-4.9c-8-0.1-12,2-12,6.4c0,1.7,0.5,2.9,1.4,3.7      c0.9,0.8,2.1,1.2,3.5,1.2c1.6,0,3.1-0.5,4.4-1.5c1.4-1,2.2-2.2,2.5-3.8C563.3,86,563.4,85.6,563.4,85.1z"></path>					<path d="M612,96h-6.4l-0.3-5.1H605c-2,3.9-5.5,5.8-10.4,5.8c-3.9,0-7.2-1.5-9.8-4.5s-3.9-6.9-3.9-11.7c0-5.1,1.4-9.3,4.2-12.5      c2.7-3,6.1-4.5,10-4.5c4.4,0,7.4,1.4,9.2,4.3h0.1V49.6h7.2v37.8C611.7,90.6,611.8,93.4,612,96z M604.5,82.6v-5.3      c0-0.9-0.1-1.7-0.2-2.2c-0.4-1.7-1.3-3.1-2.6-4.3c-1.3-1.2-3-1.7-4.8-1.7c-2.7,0-4.8,1-6.4,3.1c-1.5,2.1-2.3,4.8-2.3,8      c0,3.1,0.7,5.7,2.2,7.7c1.6,2.1,3.7,3.1,6.3,3.1c2.4,0,4.3-0.9,5.7-2.6C603.8,86.8,604.5,84.9,604.5,82.6z"></path>					<path d="M673.9,79.9c0,4.9-1.4,8.9-4.3,12c-3,3.2-7,4.8-11.9,4.8c-4.8,0-8.6-1.5-11.4-4.6c-2.8-3.1-4.2-7-4.2-11.7      c0-4.9,1.5-9,4.4-12.1c2.9-3.1,6.9-4.7,11.8-4.7c4.8,0,8.6,1.5,11.5,4.6C672.5,71.2,673.9,75.1,673.9,79.9z M666.4,80.1      c0-2.9-0.6-5.5-1.9-7.5c-1.5-2.5-3.7-3.8-6.5-3.8c-2.9,0-5.1,1.3-6.6,3.8c-1.3,2.1-1.9,4.7-1.9,7.7c0,2.9,0.6,5.4,1.9,7.5      c1.6,2.5,3.7,3.8,6.6,3.8c2.8,0,4.9-1.3,6.5-3.9C665.7,85.6,666.4,83,666.4,80.1z"></path>					<path d="M712.7,96h-7.2V77.8c0-5.6-2.2-8.4-6.6-8.4c-2.1,0-3.9,0.8-5.2,2.3s-2,3.4-2,5.4V96h-7.2V73.3c0-2.8-0.1-5.8-0.3-9.1      h6.3l0.3,5h0.2c0.8-1.5,2.1-2.8,3.7-3.8c2-1.2,4.2-1.8,6.6-1.8c3,0,5.6,1,7.6,2.9c2.5,2.4,3.7,5.9,3.7,10.5V96z"></path>					<path d="M761.4,69.5h-8V85c0,3.9,1.4,5.9,4.2,5.9c1.3,0,2.4-0.1,3.2-0.3l0.2,5.4c-1.4,0.5-3.3,0.8-5.6,0.8      c-2.9,0-5.1-0.8-6.7-2.5c-1.6-1.7-2.4-4.6-2.4-8.6v-16h-4.8v-5.3h4.8v-5.8l7.1-2.1v7.9h8L761.4,69.5L761.4,69.5z"></path>					<path d="M799.7,96h-7.2V77.9c0-5.7-2.2-8.6-6.6-8.6c-3.4,0-5.6,1.7-6.9,5c-0.2,0.7-0.3,1.5-0.3,2.5V96h-7.2V49.6h7.2v19.2h0.1      c2.3-3.5,5.5-5.2,9.8-5.2c3,0,5.5,1,7.4,2.9c2.5,2.4,3.7,6,3.7,10.7C799.7,77.1,799.7,96,799.7,96z"></path>					<path d="M839.2,78.6c0,1.3-0.1,2.3-0.3,3.2h-21.7c0.1,3.1,1.1,5.5,3.1,7.2c1.8,1.5,4.2,2.2,7.1,2.2c3.2,0,6.1-0.5,8.8-1.5      l1.1,4.9c-3.1,1.3-6.7,2-10.9,2c-5,0-9-1.5-11.9-4.4c-2.9-2.9-4.3-6.8-4.3-11.7c0-4.8,1.3-8.8,4-12c2.8-3.4,6.6-5.1,11.4-5.1      c4.7,0,8.2,1.7,10.6,5.1C838.3,71.3,839.2,74.7,839.2,78.6z M832.3,76.8c0.1-2.1-0.4-3.9-1.4-5.4c-1.3-2-3.2-2.9-5.8-2.9      c-2.4,0-4.3,1-5.8,2.9c-1.2,1.5-1.9,3.4-2.1,5.5H832.3z"></path>				</g>			</g>		</g>	</g></g></svg>