<svg xmlns="http://www.w3.org/2000/svg" xmlns:xlink="http://www.w3.org/1999/xlink" id="Layer_1" x="0px" y="0px" viewBox="0 0 984.3 290.1" style="enable-background:new 0 0 984.3 290.1;" xml:space="preserve"><style type="text/css">	.st0{fill:none;}	.st1{fill:#FFFFFF;}	.st2{fill:#05D4FB;}	.st3{fill:#06EF79;}	.st4{fill:#FCCF02;}	.st5{fill:#F9374A;}	.st6{fill-rule:evenodd;clip-rule:evenodd;}</style><g>	<g>		<path class="st0" d="M950,290.1H34.3C15.4,290.1,0,274.7,0,255.8V34.3C0,15.4,15.4,0,34.3,0H950c18.9,0,34.3,15.4,34.3,34.3v221.5   C984.3,274.7,968.8,290.1,950,290.1z"></path>		<path class="st1" d="M948.3,283.5H36c-15.9,0-28.8-13-28.8-28.8V35.4c0-15.9,13-28.8,28.8-28.8h912.3c15.9,0,28.8,13,28.8,28.8   v219.3C977.2,270.6,964.2,283.5,948.3,283.5z"></path>	</g>	<g>		<g>			<path class="st2" d="M76.4,54.2c-1.9,1.9-3.1,4.6-3.1,7.6v162.4c0,0.9,0.1,1.8,0.3,2.6l90.4-87.4L76.4,54.2z"></path>			<path class="st3" d="M195.1,109.2L90,52.2c-4.8-2.6-10.3-1.4-13.6,2l87.6,85.2L195.1,109.2z"></path>			<path class="st4" d="M230.2,128.3l-35.1-19L164,139.4l37.8,36.7l28.1-14.5C243.5,154.6,243.7,135.6,230.2,128.3z"></path>			<path class="st5" d="M73.6,226.8c1.7,6.7,9.5,10.6,16.2,7.1l112-57.8L164,139.4L73.6,226.8z"></path>		</g>		<g id="g1237_1_" transform="translate(0 -.008)">			<path id="path1233_3_" class="st6" d="M299.3,171.9c0-26.4,22.3-47.8,48.8-47.8c14.7,0,25.1,5.7,32.9,13.2l-9.3,9.2    c-5.6-5.2-13.2-9.3-23.7-9.3c-19.4,0-34.5,15.5-34.5,34.7c0,19.2,15.1,34.8,34.5,34.8c12.5,0,19.7-5,24.3-9.6    c3.8-3.7,6.2-9.1,7.2-16.4H348v-13h44.2c0.5,2.3,0.7,5.1,0.7,8.2c0,9.8-2.7,21.9-11.4,30.6c-8.5,8.7-19.2,13.4-33.5,13.4    C321.5,219.7,299.2,198.3,299.3,171.9L299.3,171.9z M428.7,158.1c-17.1,0-31.1,13-31.1,30.8c0,17.7,14,30.8,31.1,30.8    c17.1,0,31.1-13.1,31.1-30.8C459.8,171,445.8,158.1,428.7,158.1z M428.7,207.6c-9.4,0-17.5-7.7-17.5-18.7    c0-11.1,8.1-18.7,17.5-18.7c9.4,0,17.5,7.6,17.5,18.7C446.1,199.9,438.1,207.6,428.7,207.6z M496.5,158.1    c-17.1,0-31.1,13-31.1,30.8c0,17.7,14,30.8,31.1,30.8c17.1,0,31.1-13.1,31.1-30.8C527.5,171,513.6,158.1,496.5,158.1L496.5,158.1    z M496.5,207.6c-9.4,0-17.5-7.7-17.5-18.7c0-11.1,8.1-18.7,17.5-18.7c9.4,0,17.5,7.6,17.5,18.7    C513.9,199.9,505.9,207.6,496.5,207.6L496.5,207.6z M579.7,160v5h-0.5c-3-3.6-8.9-6.9-16.3-6.9c-15.5,0-29.7,13.5-29.7,30.9    c0,17.2,14.2,30.7,29.7,30.7c7.4,0,13.2-3.3,16.3-7h0.5v4.4c0,11.8-6.3,18.1-16.5,18.1c-8.3,0-13.5-6-15.6-11l-11.8,4.9    c3.4,8.2,12.4,18.2,27.4,18.2c15.9,0,29.4-9.3,29.4-32.1V160L579.7,160z M564.1,207.6c-9.4,0-17.2-7.8-17.2-18.5    c0-10.8,7.9-18.8,17.2-18.8c9.3,0,16.5,7.9,16.5,18.8C580.6,199.7,573.4,207.6,564.1,207.6z M602,127.3h13.6v90.5H602V127.3z     M652.9,207.6c-6.9,0-11.8-3.2-15-9.3l41.4-17l-1.4-3.5c-2.6-6.9-10.4-19.6-26.5-19.6c-15.9,0-29.2,12.5-29.2,30.8    c0,17.2,13.1,30.8,30.7,30.8c14.2,0,22.4-8.6,25.8-13.6l-10.6-7C664.6,204.2,659.8,207.6,652.9,207.6L652.9,207.6z M651.8,170    c5.4,0,10,2.7,11.5,6.5L635.6,188C635.3,176.1,644.9,170,651.8,170L651.8,170z"></path>			<path id="path1235_1_" class="st6" d="M742.2,127.3h-33.1v90.5h13.8v-34.3h19.3c15.3,0,30.4-10.8,30.4-28.1    C772.6,138.2,757.5,127.3,742.2,127.3L742.2,127.3z M742.6,170.9h-19.7v-31h19.7c10.3,0,16.2,8.4,16.2,15.5    C758.8,162.4,752.9,170.9,742.6,170.9z M794,217.8v-90.5h-13.8v90.5H794z M856.1,217.7V183c0-16.1-12.3-25-28.1-25    c-10,0-20.4,4.3-24.6,13.9l12.3,5c2.6-5,7.5-6.6,12.6-6.6c7.1,0,14.4,4.2,14.5,11.7v0.9c-2.5-1.4-7.9-3.5-14.4-3.5    c-13.2,0-26.7,7.1-26.7,20.4c0,12.1,10.8,19.9,23,19.9c9.3,0,14.4-4.1,17.6-8.8h0.5v7L856.1,217.7L856.1,217.7z M826.3,207.5    c-4.5,0-10.8-2.2-10.8-7.7c0-7,7.9-9.7,14.7-9.7c6.1,0,8.9,1.3,12.6,3C841.7,201.3,834.7,207.4,826.3,207.5L826.3,207.5z     M904.7,159.9l-15.8,39.2h-0.5l-16.4-39.2h-14.9l24.7,54.8l-14.1,30.5h14.4l38-85.3H904.7z"></path>		</g>		<path d="M520.2,95.5c-6.6,0-12.1-2.2-16.5-6.7c-4.3-4.3-6.8-10.2-6.7-16.3c0-6.5,2.2-11.9,6.7-16.2c4.4-4.4,9.9-6.7,16.5-6.7   c6.5,0,12,2.2,16.5,6.7c4.4,4.5,6.7,9.9,6.7,16.2c-0.1,6.5-2.3,11.9-6.7,16.2C532.3,93.2,526.8,95.5,520.2,95.5z M324.9,95.5   c-6.4,0-12-2.2-16.5-6.6c-4.5-4.3-6.8-9.8-6.8-16.3c0-6.5,2.3-12,6.8-16.3c4.5-4.4,10-6.6,16.5-6.6c3.2,0,6.3,0.6,9.2,1.9   c2.9,1.2,5.3,2.9,7,4.9l0.4,0.5l-4.9,4.7l-0.5-0.6c-2.8-3.2-6.5-4.8-11.4-4.8c-4.4,0-8.2,1.5-11.3,4.5c-3.2,3-4.8,7-4.8,11.8   c0,4.8,1.6,8.7,4.8,11.8c3.1,3,7,4.5,11.3,4.5c4.7,0,8.6-1.5,11.6-4.5c1.8-1.8,2.9-4.2,3.3-7.4h-15.7v-6.6h22.5l0.1,0.6   c0.2,1.1,0.3,2.3,0.3,3.3c0,6.1-1.9,11-5.6,14.7C337.1,93.3,331.6,95.5,324.9,95.5z M584.6,94.5h-6.9l-21.2-33.2l0.2,6v27.2h-6.9   V50.6h7.9l0.2,0.3l19.9,31.2l-0.2-6V50.6h7L584.6,94.5L584.6,94.5z M468.2,94.5h-7V57.2H449v-6.6h31.3v6.6h-12.2L468.2,94.5   L468.2,94.5z M443.3,94.5h-7V50.6h7V94.5z M403.9,94.5h-7V57.2h-12.2v-6.6h31.3v6.6h-12.2V94.5z M380.3,94.5h-26.8V50.6h26.8v6.6   h-19.8v12.1h17.9v6.5h-17.9v12.1h19.8V94.5z M508.9,84.3c3.1,3.1,6.9,4.6,11.3,4.6c4.5,0,8.2-1.5,11.3-4.6c3.1-3,4.6-6.9,4.6-11.7   c0-4.8-1.6-8.7-4.6-11.7c-3.1-3.1-6.9-4.6-11.3-4.6c-4.5,0-8.2,1.5-11.3,4.6c-3.1,3-4.6,6.9-4.6,11.7   C504.3,77.3,505.8,81.3,508.9,84.3L508.9,84.3z"></path>	</g></g></svg>