<svg viewBox="0 0 258 40" fill="none" xmlns="http://www.w3.org/2000/svg">
<path fill-rule="evenodd" clip-rule="evenodd" d="M33.0583 11.9999L26.4822 28.6744L29.6149 28.6699L31.2714 24.4291L39.7469 24.4178L41.4146 28.6541L44.5946 28.6496L37.996 11.9932L33.0583 11.9999ZM32.3144 21.7636L35.0353 14.855H35.9828L38.6992 21.7546L32.3144 21.7636Z" fill="#1D1B1C"/>
<path d="M50.4737 28.6176L50.4557 14.7621L44.1182 14.7712L44.2329 11.9612L59.7123 11.9409L59.8338 14.7508L53.4962 14.7599L53.5142 28.6154L50.4737 28.6176Z" fill="#1D1B1C"/>
<path d="M70.5924 28.9698C69.0576 28.9721 67.7185 28.7441 66.5797 28.2837C65.4387 27.8255 64.5002 27.2026 63.7643 26.4194C63.0283 25.634 62.4792 24.7199 62.1236 23.6727C61.7658 22.6255 61.5857 21.5241 61.5857 20.364C61.5835 19.1904 61.7838 18.0709 62.1866 17.0056C62.5895 15.9426 63.1814 15.0127 63.9623 14.2183C64.7455 13.4238 65.7177 12.7874 66.879 12.3089C68.0426 11.8304 69.3749 11.5912 70.8783 11.5889C72.2241 11.5866 73.4259 11.7965 74.4882 12.2141C75.5482 12.6339 76.4034 13.0875 77.0538 13.5795L77.0583 16.6987H77.0335C76.1626 16.0961 75.2353 15.5544 74.2541 15.0714C73.2729 14.5884 72.1251 14.3492 70.8108 14.3492C69.861 14.3514 69.0058 14.5026 68.2474 14.8051C67.4889 15.1075 66.8475 15.5251 66.3254 16.0577C65.8033 16.5903 65.4049 17.2245 65.1281 17.9648C64.8513 18.7029 64.714 19.4928 64.7163 20.3347C64.7185 21.1765 64.849 21.9529 65.1101 22.6684C65.3712 23.3816 65.756 24 66.2646 24.5236C66.771 25.0472 67.4057 25.458 68.1664 25.7581C68.927 26.0583 69.7958 26.2073 70.7792 26.2073C72.0778 26.205 73.2323 25.9861 74.2451 25.5482C75.2578 25.1104 76.1896 24.5665 77.0448 23.9142H77.0695L77.074 27.0333C76.4416 27.496 75.5707 27.9316 74.4634 28.3469C73.3539 28.7599 72.0643 28.9676 70.5924 28.9698Z" fill="#1D1B1C"/>
<path d="M81.3696 28.5977L81.347 11.9322L84.3853 11.9277L84.3943 18.57L93.8894 18.5564L93.8804 11.9142L96.9186 11.9097L96.9411 28.5751L93.9029 28.5819L93.8939 21.3686L84.3988 21.3822L84.4078 28.5954L81.3696 28.5977Z" fill="#1D1B1C"/>
<path fill-rule="evenodd" clip-rule="evenodd" d="M101.491 28.5706L101.469 11.9052L111.603 11.8916C113.296 11.8894 114.626 12.2437 115.593 12.9569C116.559 13.6701 117.043 14.7083 117.045 16.0738C117.047 17.0262 116.813 17.8365 116.347 18.5023C115.882 19.1703 115.103 19.6398 114.011 19.9106C115.134 20.2898 115.978 20.7999 116.541 21.4431C117.104 22.0841 117.385 22.9056 117.387 23.9054C117.389 25.5711 116.822 26.7628 115.683 27.4782C114.545 28.1937 113.057 28.5525 111.223 28.5548L101.491 28.5706ZM104.42 18.8295L111.233 18.8204C112.182 18.8182 112.882 18.6444 113.332 18.2946C113.782 17.9447 114.008 17.3963 114.008 16.6515C114.008 15.936 113.776 15.4102 113.317 15.0694C112.857 14.7286 112.185 14.5593 111.298 14.5593L104.413 14.5661L104.42 18.8295ZM111.314 25.8419L104.432 25.8983L104.427 21.258L111.381 21.2489C112.426 21.2467 113.186 21.4453 113.661 21.8403C114.136 22.2352 114.375 22.7995 114.375 23.5285C114.375 24.3049 114.134 24.8827 113.652 25.2551C113.168 25.6297 112.39 25.8238 111.314 25.8419Z" fill="#1D1B1C"/>
<path fill-rule="evenodd" clip-rule="evenodd" d="M126.001 28.3223C127.124 28.733 128.382 28.9384 129.775 28.9362C131.168 28.9362 132.426 28.7263 133.553 28.311C134.676 27.898 135.628 27.3089 136.412 26.546C137.193 25.7832 137.798 24.8623 138.223 23.7812C138.651 22.7024 138.862 21.504 138.86 20.1859C138.858 18.8701 138.644 17.6716 138.214 16.5928C137.784 15.514 137.179 14.5931 136.394 13.8325C135.61 13.0719 134.656 12.4851 133.531 12.0744C132.406 11.6636 131.148 11.4582 129.754 11.4605C128.361 11.4627 127.103 11.6726 125.98 12.0856C124.857 12.4987 123.901 13.0877 123.111 13.8506C122.319 14.6134 121.711 15.5365 121.286 16.6154C120.858 17.6942 120.646 18.8927 120.649 20.2107C120.651 21.5265 120.865 22.725 121.295 23.8038C121.724 24.8826 122.334 25.8035 123.127 26.5641C123.919 27.3247 124.875 27.9115 126.001 28.3223ZM134.161 24.5621C133.101 25.6342 131.632 26.1736 129.748 26.1758C127.864 26.1781 126.399 25.6455 125.355 24.5779C124.308 23.5081 123.784 22.0524 123.782 20.2107C123.779 18.369 124.306 16.911 125.366 15.8389C126.424 14.7646 127.896 14.2275 129.779 14.2252C131.661 14.223 133.126 14.7556 134.172 15.8254C135.219 16.8952 135.743 18.3509 135.746 20.1926C135.748 22.0321 135.219 23.4901 134.161 24.5621Z" fill="#1D1B1C"/>
<path d="M143.614 28.5119L140.007 28.5164V28.4916L147.022 19.8881L140.481 11.8736V11.8487L144.161 11.8442L149.011 17.9313L153.893 11.8307L157.5 11.8262V11.851L151.007 19.8361L158 28.469V28.4939L154.295 28.4984L148.993 21.8155L143.614 28.5119Z" fill="#1D1B1C"/>
<path d="M0 11.9932H3.2318L9.10124 25.6478H10.123L12.2385 19.9761L8.79292 11.9932H11.9279L13.8769 16.6403L15.7066 11.9932H18.7719L15.5873 19.809L17.9887 25.6478H19.0104L24.522 11.9932H27.6593L20.9099 28.6744H15.9204L13.9017 23.5037L11.9527 28.6744H6.96322L0 11.9932Z" fill="#1D1B1C"/>
<line x1="174.5" y1="11.7153" x2="174.5" y2="28.7153" stroke="#1D1B1C"/>
<g clip-path="url(#clip0_2051_3076)">
<path d="M201.943 26.2542C201.943 26.4343 201.655 26.5199 201.074 26.5199H190.937C190.378 26.5199 190.099 26.4208 190.099 26.2182C190.099 26.0831 190.153 26.0065 190.266 25.984C190.378 25.9615 190.806 25.9525 191.558 25.9525C192.531 25.93 193.125 25.8084 193.346 25.5832C193.477 25.3851 193.544 25.0833 193.544 24.6825V19.891C193.544 17.2476 193.522 14.9014 193.477 14.6807C193.409 14.3249 193.103 14.1493 192.549 14.1493H190.86C190.284 14.1718 190 14.0818 190 13.8836C190 13.7485 190.365 13.6494 191.099 13.5819C192.986 13.4243 194.598 12.9559 195.931 12.1769C195.998 12.1318 196.399 11.8751 197.129 11.4068L198.394 10.6367L198.529 11.1366V24.6465C198.552 25.5382 198.993 25.975 199.858 25.9525C201.245 25.9074 201.938 26.0065 201.938 26.2542H201.943Z" fill="#1D1B1C"/>
<path d="M232.894 26.2542C232.894 26.4343 232.606 26.5199 232.025 26.5199H221.888C221.33 26.5199 221.05 26.4208 221.05 26.2182C221.05 26.0831 221.104 26.0065 221.217 25.984C221.33 25.9615 221.757 25.9525 222.509 25.9525C223.482 25.93 224.077 25.8084 224.297 25.5832C224.428 25.3851 224.495 25.0833 224.495 24.6825V19.891C224.495 17.2476 224.473 13.082 224.428 12.8614C224.36 12.5056 224.054 12.33 223.5 12.33H221.811C221.235 12.3525 220.951 12.2624 220.951 12.0643C220.951 11.9292 221.316 11.8301 222.05 11.7625C223.937 11.6049 225.549 11.1366 226.882 10.3575C226.95 10.3125 227.35 10.0558 228.08 9.58745L229.345 8.81738L229.481 9.31725V24.642C229.503 25.5337 229.944 25.9705 230.809 25.948C232.196 25.9029 232.89 26.002 232.89 26.2497L232.894 26.2542Z" fill="#1D1B1C"/>
<path d="M219.096 19.5849C219.096 23.3092 218.047 26.421 215.944 28.9203C213.841 31.4196 211.215 32.6671 208.063 32.6671C206.743 32.6671 205.676 32.3833 204.861 31.8159C204.046 31.2485 203.636 30.5145 203.636 29.6228C203.636 28.9743 203.839 28.4565 204.24 28.0647C204.64 27.6729 205.176 27.4792 205.847 27.4792C207.095 27.4792 207.721 28.0241 207.721 29.1184C207.721 29.6093 207.576 30.0011 207.284 30.2893C207.126 30.4694 206.761 30.7261 206.18 31.0594C206.045 31.1269 205.978 31.226 205.978 31.3611C205.978 31.852 206.626 32.0951 207.928 32.0951C209.698 32.0951 211.103 31.0909 212.143 29.0824C213.183 27.0739 213.705 24.7998 213.705 22.2599C212.544 23.3542 211.116 23.8991 209.423 23.8991C207.527 23.8991 205.951 23.2686 204.69 22.0077C203.429 20.7468 202.798 19.1931 202.798 17.3423C202.798 15.2663 203.573 13.555 205.122 12.2085C206.671 10.8575 208.63 10.1865 210.994 10.1865C213.494 10.1865 215.466 11.0241 216.916 12.6949C218.366 14.3656 219.091 16.6623 219.091 19.5849H219.096ZM214.381 17.3243C214.381 15.0771 214.034 13.3884 213.345 12.2535C212.742 11.2538 211.931 10.7539 210.904 10.7539C210.188 10.7539 209.553 11.0557 209 11.6546C208.153 12.5688 207.73 14.1359 207.73 16.3606C207.73 20.6973 208.824 22.8678 211.008 22.8678C212.012 22.8678 212.823 22.3545 213.449 21.3322C214.075 20.31 214.385 18.977 214.385 17.3288L214.381 17.3243Z" fill="#1D1B1C"/>
<path d="M250.047 19.3147C250.047 21.4132 249.304 23.1335 247.822 24.4845C246.341 25.8355 244.449 26.5065 242.153 26.5065C239.991 26.5065 238.127 25.8175 236.564 24.4349C234.601 22.6967 233.619 20.2424 233.619 17.0765C233.619 13.3748 234.727 10.263 236.947 7.74117C239.167 5.21931 241.905 3.96289 245.161 3.96289C246.544 3.96289 247.638 4.22408 248.439 4.75097C249.241 5.27335 249.642 5.98488 249.642 6.87653C249.642 7.45746 249.457 7.92581 249.088 8.28157C248.719 8.63733 248.237 8.81746 247.633 8.81746C246.449 8.81746 245.859 8.31759 245.859 7.32236C245.859 6.63786 246.215 6.08395 246.931 5.66514C247.264 5.467 247.431 5.30938 247.431 5.2013C247.431 4.75998 246.751 4.53931 245.391 4.53931C244.499 4.53931 243.675 4.80501 242.914 5.3409C241.689 6.22806 240.716 7.68713 240.005 9.70912C239.469 11.2222 239.113 12.7669 238.933 14.343C240.18 13.2487 241.621 12.7038 243.247 12.7038C245.211 12.7038 246.832 13.3298 248.115 14.5772C249.399 15.8246 250.038 17.4098 250.038 19.3282L250.047 19.3147ZM245.062 20.7693C245.062 18.1889 244.765 16.3695 244.17 15.3157C243.576 14.2575 242.765 13.7306 241.734 13.7306C240.86 13.7306 240.162 14.0638 239.649 14.7303C239 15.5769 238.672 17.1306 238.672 19.4002C238.672 21.6699 239.055 23.3722 239.816 24.507C240.464 25.4617 241.297 25.9391 242.306 25.9391C244.143 25.9391 245.062 24.2143 245.062 20.7693Z" fill="#1D1B1C"/>
<path d="M217.961 1.04454C217.74 1.65249 217.569 2.17487 217.452 2.60719C217.367 2.90441 217.295 3.05302 217.227 3.05302C217.169 3.05302 217.141 3.026 217.141 2.96746C217.141 2.94044 217.173 2.81434 217.232 2.59368C217.29 2.37302 217.322 2.17037 217.322 1.98573C217.322 1.62547 217.155 1.40481 216.822 1.31924C216.687 1.28322 216.457 1.2652 216.128 1.2652C215.93 1.2652 215.745 1.27421 215.574 1.28772L213.107 7.43474C213.048 7.57434 212.998 7.70044 212.953 7.80852C212.908 7.9166 212.886 7.98415 212.886 8.01117C212.886 8.17329 213.111 8.25435 213.566 8.25435C213.629 8.25435 213.66 8.27686 213.66 8.31739C213.66 8.39395 213.602 8.43448 213.48 8.43448C213.444 8.43448 213.354 8.43448 213.206 8.42547C212.908 8.41196 212.557 8.40295 212.152 8.40295C211.891 8.40295 211.611 8.40746 211.31 8.42097C211.211 8.42997 211.085 8.43898 210.936 8.43898C210.859 8.43898 210.819 8.42097 210.819 8.38044C210.819 8.30388 210.891 8.26785 211.031 8.26785H211.233C211.494 8.26785 211.674 8.22282 211.769 8.12825C211.864 8.03819 211.999 7.77249 212.17 7.34017L214.579 1.2652H214.156C213.426 1.2652 212.881 1.43183 212.53 1.76507C212.323 1.95871 212.075 2.32799 211.787 2.88189C211.747 2.96746 211.697 3.00799 211.638 3.00799C211.602 3.00799 211.584 2.98547 211.584 2.94494C211.584 2.92242 211.593 2.8864 211.616 2.83686L211.774 2.47209C211.85 2.30097 211.967 2.03977 212.125 1.69302C212.215 1.51289 212.318 1.29673 212.431 1.04004C212.67 1.06256 213.557 1.07156 215.088 1.07156C215.939 1.07156 216.894 1.06256 217.961 1.04004V1.04454Z" fill="#1D1B1C"/>
<path d="M221.586 7.63745C221.586 7.68699 221.519 7.76805 221.384 7.88063C220.879 8.30395 220.424 8.5201 220.01 8.5201C219.812 8.5201 219.65 8.46606 219.533 8.35348C219.411 8.2454 219.353 8.1013 219.353 7.92116C219.353 7.77255 219.438 7.50686 219.609 7.12408L220.55 5.03004C220.708 4.68328 220.785 4.46712 220.785 4.38156C220.785 4.1609 220.668 4.05282 220.433 4.05282C220.141 4.05282 219.789 4.25097 219.371 4.64726C219.051 4.95348 218.808 5.22818 218.641 5.47587C218.474 5.72355 218.276 6.10633 218.051 6.62421L217.362 8.17785C217.304 8.31295 217.268 8.38951 217.245 8.41203C217.223 8.43454 217.182 8.44355 217.119 8.44355H216.385C216.358 8.44355 216.344 8.43454 216.344 8.41203C216.344 8.38501 216.371 8.31295 216.416 8.20037L219.339 1.54448C219.447 1.3058 219.497 1.1662 219.497 1.13017C219.497 1.07163 219.479 1.0401 219.447 1.0356C219.416 1.02659 219.299 1.02659 219.1 1.02659C218.929 1.02659 218.844 0.995071 218.844 0.932025C218.844 0.900502 218.871 0.886992 218.92 0.886992H219.825C219.983 0.886992 220.132 0.882489 220.271 0.868979C220.357 0.859972 220.411 0.855469 220.442 0.855469C220.505 0.855469 220.537 0.882489 220.537 0.932025C220.537 0.981561 220.523 1.02209 220.492 1.05812C220.442 1.17971 220.397 1.27428 220.352 1.34633L218.628 5.16514C219.073 4.66077 219.447 4.31401 219.744 4.11587C220.042 3.92222 220.352 3.82315 220.681 3.82315C220.942 3.82315 221.158 3.8862 221.325 4.00779C221.492 4.13388 221.577 4.2915 221.577 4.48063C221.577 4.69229 221.496 4.98951 221.334 5.36328L220.366 7.58792C220.244 7.86262 220.186 8.02924 220.186 8.08779C220.186 8.19587 220.24 8.2454 220.343 8.2454C220.577 8.2454 220.897 8.06977 221.316 7.71401C221.42 7.62395 221.492 7.57441 221.528 7.57441C221.564 7.57441 221.582 7.59693 221.582 7.63745H221.586Z" fill="#1D1B1C"/>
<path d="M226.702 4.57513C226.702 4.95791 226.495 5.27765 226.085 5.52533C225.675 5.77752 225.153 5.90361 224.522 5.90361C224.297 5.90361 224.045 5.88559 223.766 5.84957C223.505 6.39447 223.374 6.89884 223.374 7.36268C223.374 7.99314 223.653 8.30387 224.216 8.30387C224.649 8.30387 225.072 8.07871 225.482 7.63288C225.572 7.53381 225.635 7.48427 225.662 7.48427C225.698 7.48427 225.716 7.50228 225.716 7.53831C225.716 7.70043 225.549 7.89858 225.216 8.13725C224.833 8.41195 224.437 8.54705 224.023 8.54705C223.563 8.54705 223.18 8.41195 222.883 8.14626C222.586 7.87606 222.437 7.53831 222.437 7.12851C222.437 6.33593 222.87 5.57036 223.734 4.82732C224.491 4.17884 225.171 3.8501 225.765 3.8501C226.36 3.8501 226.702 4.09328 226.702 4.57513ZM225.945 4.395C225.945 4.17434 225.837 4.06626 225.617 4.06626C225.396 4.06626 225.166 4.15182 224.946 4.32295C224.549 4.63367 224.185 5.09752 223.851 5.71447C223.937 5.72348 224.032 5.72348 224.14 5.72348C224.536 5.72348 224.923 5.60189 225.297 5.36321C225.729 5.09301 225.945 4.77328 225.945 4.395Z" fill="#1D1B1C"/>
<path d="M223.581 29.7532C223.581 29.8478 223.527 29.9964 223.424 30.199C223.099 30.8295 222.901 31.2708 222.838 31.5275C222.811 31.6401 222.766 31.6986 222.712 31.6986C222.658 31.6986 222.627 31.6626 222.627 31.5905C222.627 31.568 222.654 31.4825 222.703 31.3248C222.744 31.1897 222.766 31.0186 222.766 30.8025C222.766 30.3611 222.654 30.0144 222.424 29.7622C222.199 29.5055 221.888 29.3794 221.501 29.3794C220.578 29.3794 219.803 29.8793 219.172 30.8745C218.479 31.9733 218.132 33.1352 218.132 34.3691C218.132 35.6705 218.605 36.3235 219.555 36.3235C219.898 36.3235 220.213 36.2379 220.51 36.0713C221.05 35.7606 221.438 35.3958 221.681 34.9725C221.771 34.8104 221.852 34.7293 221.915 34.7293C221.96 34.7293 221.978 34.7564 221.978 34.8149C221.978 34.977 221.78 35.2697 221.384 35.6931C220.69 36.4271 219.888 36.7919 218.992 36.7919C218.362 36.7919 217.867 36.5937 217.511 36.1929C217.155 35.7921 216.975 35.2382 216.975 34.5312C216.975 33.1982 217.452 31.9733 218.407 30.8565C219.362 29.7397 220.406 29.1768 221.537 29.1768C221.847 29.1768 222.113 29.2308 222.325 29.3344C222.473 29.4109 222.694 29.5776 222.982 29.8252C223.054 29.8883 223.122 29.9198 223.194 29.9198C223.279 29.9198 223.361 29.8523 223.437 29.7172C223.464 29.6901 223.496 29.6766 223.523 29.6766C223.563 29.6766 223.586 29.7036 223.586 29.7487L223.581 29.7532Z" fill="#1D1B1C"/>
<path d="M227.54 33.806C227.54 34.6346 227.161 35.3822 226.4 36.0487C225.806 36.5756 225.184 36.8368 224.54 36.8368C224.099 36.8368 223.739 36.6837 223.455 36.3774C223.171 36.0712 223.032 35.6794 223.032 35.1976C223.032 34.7878 223.149 34.3644 223.383 33.9321C223.617 33.4998 223.928 33.1305 224.32 32.8243C224.928 32.3515 225.518 32.1128 226.085 32.1128C226.517 32.1128 226.869 32.2704 227.139 32.5811C227.409 32.8919 227.544 33.3017 227.544 33.806H227.54ZM226.72 33.1125C226.72 32.5721 226.477 32.3064 225.995 32.3064C225.405 32.3064 224.896 32.7297 224.464 33.5719C224.054 34.378 223.847 35.139 223.847 35.846C223.847 36.3774 224.086 36.6431 224.558 36.6431C225.153 36.6431 225.648 36.2603 226.049 35.4948C226.495 34.6301 226.72 33.8376 226.72 33.1125Z" fill="#1D1B1C"/>
<path d="M234.776 32.901C234.776 33.0946 234.686 33.3918 234.511 33.7926L233.723 35.5805C233.597 35.8732 233.529 36.0803 233.529 36.2064C233.529 36.346 233.61 36.4181 233.777 36.4181C234.029 36.4181 234.268 36.2875 234.506 36.0263C234.592 35.9362 234.659 35.8867 234.709 35.8867C234.754 35.8867 234.772 35.9002 234.772 35.9272C234.772 36.0128 234.65 36.1389 234.407 36.31C234.051 36.5667 233.723 36.6928 233.426 36.6928C233.227 36.6928 233.065 36.6432 232.939 36.5397C232.813 36.4361 232.75 36.3055 232.75 36.1389C232.75 35.9632 232.827 35.693 232.984 35.3328L233.759 33.536C233.943 33.1126 234.033 32.8334 234.033 32.7073C234.033 32.4597 233.925 32.3336 233.714 32.3336C233.38 32.3336 233.02 32.5722 232.637 33.0451C232.39 33.3513 232.075 33.9503 231.692 34.8464L231.052 36.3415C230.953 36.5757 230.877 36.6928 230.827 36.6928H230.125C230.075 36.6928 230.048 36.6748 230.048 36.6387C230.048 36.6162 230.062 36.5802 230.089 36.5216C230.116 36.4631 230.156 36.382 230.206 36.2785L231.313 33.662C231.548 33.1126 231.665 32.7524 231.665 32.5812C231.665 32.3831 231.557 32.284 231.345 32.284C231.07 32.284 230.728 32.5137 230.323 32.9775C230.201 33.1216 230.016 33.3693 229.76 33.7206C229.67 33.8467 229.535 34.1124 229.368 34.5177L228.571 36.391C228.485 36.5892 228.422 36.6883 228.377 36.6883C228.341 36.6883 228.314 36.6838 228.292 36.6748C228.179 36.6567 228.112 36.6477 228.089 36.6477C227.868 36.6477 227.738 36.6567 227.697 36.6793C227.684 36.6883 227.661 36.6883 227.634 36.6883C227.598 36.6883 227.58 36.6703 227.58 36.6342C227.616 36.5577 227.657 36.4721 227.706 36.3775L229.386 32.4732C229.409 32.4371 229.418 32.4146 229.418 32.3966C229.418 32.3336 229.355 32.302 229.224 32.302C229.026 32.302 228.927 32.266 228.927 32.194C228.927 32.1444 228.963 32.1219 229.035 32.1219C229.098 32.1219 229.197 32.1309 229.332 32.1444C229.467 32.1579 229.566 32.1669 229.629 32.1669C229.949 32.1669 230.152 32.1399 230.237 32.0904C230.26 32.0814 230.278 32.0769 230.3 32.0679C230.345 32.0679 230.363 32.0949 230.363 32.1444C230.363 32.1579 230.332 32.2345 230.269 32.3786C230.219 32.4777 230.152 32.6533 230.066 32.901L230.012 33.0496C230.075 32.9775 230.21 32.8334 230.417 32.6083C230.737 32.2525 231.124 32.0724 231.588 32.0724C231.881 32.0724 232.084 32.1444 232.205 32.293C232.327 32.4416 232.394 32.6983 232.408 33.0721C232.863 32.4056 233.349 32.0724 233.876 32.0724C234.146 32.0724 234.358 32.1489 234.52 32.2975C234.677 32.4462 234.758 32.6443 234.758 32.892L234.776 32.901Z" fill="#1D1B1C"/>
<path d="M240.644 33.3286C240.644 34.1527 240.307 34.9363 239.636 35.6793C238.96 36.4224 238.249 36.7916 237.496 36.7916C237.015 36.7916 236.69 36.571 236.519 36.1341L235.628 38.3363C235.569 38.4714 235.533 38.5794 235.511 38.665C235.447 38.8406 235.375 38.9983 235.299 39.1334C235.817 39.1559 236.073 39.1919 236.073 39.2414C236.073 39.3 235.983 39.327 235.808 39.327C235.65 39.327 235.461 39.318 235.231 39.3045L234.912 39.282C234.912 39.282 234.853 39.282 234.718 39.291C234.56 39.3 234.412 39.3045 234.263 39.3135L233.835 39.3225C233.687 39.3315 233.61 39.3 233.61 39.2369C233.61 39.1649 233.709 39.1289 233.907 39.1198C234.169 39.1063 234.331 39.0748 234.398 39.0253C234.461 38.9757 234.556 38.8091 234.673 38.5254L237.055 32.8017C237.177 32.509 237.235 32.3604 237.235 32.3424C237.235 32.2838 237.195 32.2568 237.109 32.2568H236.834C236.708 32.2568 236.641 32.2298 236.641 32.1757C236.641 32.1307 236.681 32.1082 236.767 32.1082H236.938C237.505 32.1082 237.875 32.0902 238.046 32.0541C238.104 32.0406 238.136 32.0361 238.154 32.0361C238.194 32.0361 238.217 32.0586 238.217 32.0992C238.217 32.1397 238.118 32.3784 237.92 32.8107C238.244 32.518 238.505 32.3243 238.703 32.2208C238.897 32.1172 239.113 32.0677 239.347 32.0677C239.721 32.0677 240.032 32.1847 240.28 32.4189C240.523 32.6531 240.649 32.9548 240.649 33.3241L240.644 33.3286ZM239.739 32.9548C239.739 32.536 239.55 32.3243 239.176 32.3243C238.802 32.3243 238.433 32.545 238.05 32.9863C237.753 33.3286 237.46 33.8645 237.168 34.5985L236.816 35.4722C236.74 35.6658 236.699 35.8054 236.699 35.9C236.699 36.0846 236.771 36.2467 236.911 36.3818C237.051 36.5169 237.222 36.5845 237.42 36.5845C237.992 36.5845 238.541 36.1026 239.059 35.1344C239.514 34.2878 239.739 33.5628 239.739 32.9593V32.9548Z" fill="#1D1B1C"/>
<path d="M246.485 32.1579C246.485 32.1579 246.458 32.2525 246.4 32.3785L244.995 35.5624C244.859 35.8686 244.792 36.0983 244.792 36.2649C244.792 36.4495 244.882 36.5396 245.067 36.5396C245.341 36.5396 245.62 36.3505 245.895 35.9677C245.954 35.8866 245.994 35.8506 246.021 35.8506C246.048 35.8506 246.062 35.8641 246.062 35.8911C246.062 35.9677 245.985 36.0938 245.828 36.2649C245.517 36.5981 245.143 36.7648 244.711 36.7648C244.49 36.7648 244.31 36.7107 244.175 36.6072C244.04 36.5036 243.968 36.364 243.968 36.1928C243.968 36.0848 243.995 35.9632 244.044 35.8191C243.598 36.4721 243.081 36.7963 242.491 36.7963C242.121 36.7963 241.82 36.6792 241.586 36.4405C241.351 36.2019 241.234 35.9001 241.234 35.5354C241.234 35.1346 241.369 34.6887 241.64 34.2114C241.91 33.734 242.266 33.2927 242.716 32.8964C243.324 32.3605 243.887 32.0903 244.396 32.0903C244.904 32.0903 245.224 32.347 245.287 32.8559L245.553 32.293C245.611 32.1804 245.661 32.1219 245.702 32.1219C245.715 32.1219 245.76 32.1309 245.828 32.1444C245.9 32.1579 245.949 32.1669 245.976 32.1669C246.134 32.1669 246.251 32.1489 246.337 32.1174C246.364 32.0993 246.391 32.0903 246.413 32.0903C246.454 32.0903 246.476 32.1174 246.476 32.1624L246.485 32.1579ZM245.143 33.0405C245.143 32.8199 245.076 32.6442 244.945 32.5091C244.814 32.374 244.648 32.3065 244.441 32.3065C244.085 32.3065 243.747 32.5136 243.418 32.9324C243.045 33.4053 242.743 33.9052 242.513 34.4321C242.288 34.9589 242.171 35.4183 242.171 35.8146C242.171 36.2964 242.369 36.5351 242.765 36.5351C242.991 36.5351 243.238 36.4135 243.504 36.1658C243.77 35.9181 243.99 35.6074 244.17 35.2336L244.999 33.4503C245.089 33.2522 245.139 33.1126 245.139 33.036L245.143 33.0405Z" fill="#1D1B1C"/>
<path d="M251.749 32.919C251.749 33.0901 251.659 33.3873 251.475 33.8061L250.615 35.7606C250.515 35.9903 250.466 36.1434 250.466 36.2199C250.466 36.3685 250.547 36.4451 250.714 36.4451C250.916 36.4451 251.209 36.283 251.601 35.9542C251.637 35.9317 251.664 35.9227 251.686 35.9227C251.731 35.9227 251.749 35.9407 251.749 35.9767C251.749 36.0623 251.632 36.1839 251.394 36.3505C251.069 36.5712 250.727 36.6793 250.362 36.6793C250.142 36.6793 249.957 36.6297 249.813 36.5352C249.669 36.4406 249.597 36.3145 249.597 36.1659C249.597 36.0443 249.664 35.8326 249.799 35.5264L250.651 33.6125C250.858 33.1487 250.957 32.8379 250.957 32.6713C250.957 32.4281 250.831 32.3065 250.583 32.3065C250.259 32.3065 249.876 32.5407 249.435 33.0091C249.101 33.3648 248.795 33.8602 248.521 34.4997L247.647 36.5216C247.611 36.6297 247.566 36.6793 247.507 36.6793H246.782C246.733 36.6793 246.706 36.6612 246.706 36.6252C246.706 36.6117 246.715 36.5892 246.737 36.5622L246.814 36.4046L248.439 32.5092C248.462 32.4732 248.48 32.4416 248.494 32.4146C248.484 32.3651 248.399 32.3381 248.228 32.3291C248.016 32.3201 247.908 32.284 247.908 32.212C247.908 32.1624 247.949 32.1399 248.025 32.1399C248.075 32.1399 248.151 32.1489 248.259 32.1624C248.367 32.176 248.448 32.185 248.503 32.185C248.885 32.185 249.137 32.1579 249.259 32.0994C249.309 32.0769 249.34 32.0679 249.354 32.0679C249.394 32.0679 249.417 32.0904 249.417 32.1309C249.417 32.1534 249.417 32.1714 249.408 32.185L249.016 33.1847C249.074 33.1216 249.155 33.0316 249.259 32.9145C249.786 32.3516 250.29 32.0679 250.781 32.0679C251.065 32.0679 251.295 32.1489 251.475 32.3065C251.65 32.4687 251.74 32.6713 251.74 32.919H251.749Z" fill="#1D1B1C"/>
<path d="M258.054 32.4327C258.054 32.6804 257.933 32.8065 257.694 32.8065C257.581 32.8065 257.5 32.7389 257.451 32.6038C257.437 32.5768 257.419 32.5633 257.397 32.5633C257.325 32.5633 257.171 32.7569 256.942 33.1397L255.847 34.9275C255.807 35.0041 255.307 35.7742 254.348 37.2287C253.853 37.9898 253.339 38.5842 252.808 39.0165C252.497 39.2732 252.186 39.3993 251.885 39.3993C251.583 39.3993 251.407 39.2822 251.407 39.0481C251.407 38.9265 251.448 38.8274 251.533 38.7508C251.619 38.6743 251.727 38.6338 251.853 38.6338C251.943 38.6338 252.002 38.6473 252.029 38.6743C252.056 38.7013 252.069 38.7869 252.078 38.931C252.087 39.0391 252.137 39.0886 252.227 39.0886C252.353 39.0886 252.551 38.976 252.812 38.7463C253.078 38.5212 253.326 38.251 253.56 37.9493C253.911 37.4899 254.087 37.0846 254.087 36.7469V33.1577C254.087 32.6669 253.979 32.4237 253.762 32.4237C253.501 32.4237 253.254 32.6984 253.015 33.2433C252.929 33.4414 252.857 33.5405 252.799 33.5405C252.74 33.5405 252.713 33.509 252.713 33.4459C252.713 33.3063 252.821 33.0722 253.033 32.7569C253.353 32.2841 253.726 32.0454 254.159 32.0454C254.478 32.0454 254.681 32.1535 254.767 32.3651C254.83 32.5273 254.861 32.802 254.861 33.1848V33.473L254.83 35.3644C254.83 35.6255 254.839 35.8912 254.852 36.1524L255.023 35.8957C255.095 35.7696 255.208 35.576 255.366 35.3238L255.708 34.8014L256.622 33.2928C256.969 32.7254 257.194 32.3832 257.298 32.2616C257.401 32.14 257.532 32.0814 257.698 32.0814C257.946 32.0814 258.072 32.203 258.072 32.4417L258.054 32.4327Z" fill="#1D1B1C"/>
</g>
<defs>
<clipPath id="clip0_2051_3076">
<rect width="68" height="38.7285" fill="white" transform="translate(190 0.851074)"/>
</clipPath>
</defs>
</svg>
